<?xml version="1.0"?>
<svg width="25" height="38" viewBox="0 0 25 38" fill="none" xmlns="http://www.w3.org/2000/svg">
<path d="M9.22067 37.7162L9.21887 37.7155C8.72517 37.5229 8.44726 36.9991 8.55839 36.4697L8.55852 36.4698L8.55974 36.4627L11.1389 21.5349L11.1791 21.3024L10.9432 21.3008L1.34465 21.2353H1.34328C0.89907 21.2353 0.510029 20.9857 0.314281 20.5932C0.121182 20.2059 0.176464 19.7345 0.452354 19.4026L0.452397 19.4026L0.455329 19.3989L15.3098 0.641469C15.3099 0.641339 15.31 0.641209 15.3101 0.641079C15.6471 0.219063 16.2011 0.0845147 16.6679 0.304773C17.1444 0.529604 17.4179 1.062 17.3089 1.55377L17.3088 1.55374L17.3076 1.56005L14.7937 14.9165L14.7494 15.1517L14.9887 15.1535L23.6732 15.219H23.6747C24.0855 15.219 24.4776 15.4684 24.6738 15.8338C24.8666 16.1929 24.8378 16.6656 24.5919 16.9943L24.5918 16.9942L24.5875 17.0005L10.5813 37.2971L10.5794 37.3C10.3584 37.6324 9.9992 37.8 9.63594 37.8C9.50012 37.8 9.36208 37.7729 9.22067 37.7162ZM3.92892 18.6596L3.67489 18.9805L4.08418 18.9837L12.5074 19.0492H12.509C12.8452 19.0492 13.1434 19.189 13.3304 19.4301L13.3301 19.4303L13.3388 19.4401C13.5559 19.6851 13.6413 20.0154 13.585 20.3546C13.585 20.3547 13.585 20.3549 13.585 20.355L11.7895 30.8953L12.1513 31.0424L21.2602 17.8168L21.475 17.505L21.0963 17.5034L13.3587 17.4706H13.3578C13.0366 17.4706 12.7302 17.31 12.4989 17.0508C12.2759 16.7692 12.1938 16.436 12.2489 16.1015L14.0767 6.44651L13.7234 6.28518L3.92892 18.6596Z" fill="#1D1D1F" stroke="#FAFAFA" stroke-width="0.4"/>
</svg>
