<?xml version="1.0"?>
<svg width="37" height="45" viewBox="0 0 37 45" fill="none" xmlns="http://www.w3.org/2000/svg">
<path d="M26.1884 15.4535L26.1884 15.4535L15.5424 26.0995L11.5047 22.0618C11.5047 22.0618 11.5047 22.0618 11.5047 22.0618C11.1059 21.6631 10.4595 21.6631 10.0608 22.0618L10.0608 22.0618C9.66203 22.4605 9.66204 23.1069 10.0608 23.5057L10.1492 23.4173L10.0608 23.5057L14.8204 28.2653C14.8204 28.2653 14.8204 28.2653 14.8204 28.2653C15.2191 28.664 15.8659 28.6637 16.2643 28.2653L27.6322 16.8974C28.031 16.4986 28.0309 15.8522 27.6322 15.4535C27.2335 15.0547 26.5871 15.0547 26.1884 15.4535Z" fill="#1D1D1F" stroke="#1D1D1F" stroke-width="0.25"/>
<path d="M36.8331 7.43681C36.8196 6.84919 36.3986 6.34231 35.8106 6.26199C33.0696 5.88553 30.3663 5.2306 27.7164 4.26002C25.0789 3.29408 22.1607 1.94566 19.0131 0.169734C18.6135 -0.055885 18.2376 -0.0572699 17.8384 0.169734C14.7126 1.94476 11.8153 3.29034 9.15701 4.26002C6.50618 5.22692 3.80423 5.88602 1.08506 6.26199C0.496956 6.34322 0.084315 6.84919 0.0188632 7.43681C-0.241981 18.5983 2.2028 27.7308 7.32959 34.8298C10.1225 38.6969 13.6177 41.8356 17.8384 44.2289C18.1647 44.4684 18.6762 44.4503 19.0568 44.2289C23.2455 41.7957 26.736 38.6797 29.5225 34.8298C34.6561 27.7355 37.081 18.5987 36.8331 7.43681ZM27.5641 33.4592C25.142 36.8048 22.1031 39.5946 18.426 41.8355C14.7488 39.5945 11.6955 36.8151 9.28785 33.4592C4.62385 26.9584 2.34713 18.6419 2.4339 8.503C5.00121 8.08946 7.5472 7.39315 10.0927 6.45744C12.6382 5.52215 15.4233 4.23822 18.426 2.60668C21.4287 4.23822 24.1918 5.52215 26.7374 6.45744C29.2829 7.39321 31.8502 8.08946 34.418 8.503C34.5049 18.7073 32.2137 27.0355 27.5641 33.4592Z" fill="#1D1D1F"/>
</svg>