<?xml version="1.0"?>
<svg width="45" height="45" viewBox="0 0 45 45" fill="none" xmlns="http://www.w3.org/2000/svg">
<g clip-path="url(#clip0)">
<path fill-rule="evenodd" clip-rule="evenodd" d="M0.584597 16.9232C1.11263 17.303 1.4413 15.806 1.61911 15.52C2.17588 14.622 3.25889 14.1249 4.11155 13.5587C5.61169 12.561 8.12748 11.9104 9.91318 11.958C12.4478 11.9131 15.224 11.5297 17.699 12.297C19.6751 12.9095 21.7257 13.3338 23.7283 13.9678C25.9796 14.6808 28.2089 15.4724 30.5276 15.9493C31.8108 16.2124 33.1125 16.3821 34.4214 16.4445C35.4312 16.4921 36.4518 16.2083 37.4472 16.3215C38.2173 15.7966 39.3941 15.8855 40.0052 15.1181C40.9468 14.842 41.5808 14.0818 42.4128 13.6135C42.9804 13.2943 45.5671 9.83467 44.8119 8.95597C44.7782 8.91645 44.7382 8.88233 44.6911 8.85404C44.2286 8.5761 43.4545 9.99721 43.1029 10.3286C42.2601 11.1229 41.3707 11.8332 40.3725 12.4259C38.2617 13.6791 36.2749 13.8668 33.8686 13.556C29.5856 13.0038 25.5032 11.5562 21.4221 10.3133C16.9011 8.93711 11.9854 8.76963 7.35474 9.6398C5.43388 10.0013 2.84266 10.9998 1.68467 12.6567C1.08569 13.5143 -0.9775 15.9039 0.584597 16.9232ZM44.7854 18.7829C44.3422 18.5562 43.3418 19.8695 43.0679 20.1367C42.3508 20.8354 41.5723 21.4743 40.7201 22.0019C38.7597 23.2142 36.9672 23.3929 34.7177 23.3929C30.0997 23.3929 25.3748 21.1663 20.9651 19.9638C16.4085 18.7219 11.4259 18.4691 6.81054 19.5377C4.76441 20.0119 2.63073 21.0522 1.42963 22.8083C0.861635 23.639 -0.862554 25.7587 0.584597 26.7034C1.11263 27.0833 1.4413 25.5863 1.61911 25.3003C2.17588 24.4023 3.25889 23.9057 4.11155 23.3386C5.61169 22.3404 8.12748 21.6898 9.91318 21.7379C12.4478 21.693 15.224 21.3091 17.699 22.0764C19.6751 22.6893 21.7257 23.1132 23.7283 23.7472C25.9796 24.4602 28.2089 25.2514 30.5276 25.7286C31.8108 25.9922 33.1125 26.1619 34.4214 26.2239C35.4312 26.2719 36.4518 25.9882 37.4472 26.1009C38.2173 25.576 39.3941 25.6649 40.0052 24.8971C40.9468 24.6214 41.5808 23.8621 42.4128 23.3929C43.2471 22.9228 45.1756 20.1605 44.9708 19.1053C44.9362 18.928 44.8711 18.8261 44.7854 18.7829ZM44.899 28.2795C44.8599 28.2054 44.8168 28.1492 44.7705 28.1093C44.2618 27.6711 43.3584 29.1887 43.0055 29.5313C42.2467 30.2681 41.4075 30.921 40.4991 31.4638C38.3188 32.7646 35.8102 32.8423 33.3473 32.5576C29.0934 32.0673 25.1844 30.2897 21.0351 29.3562C19.2058 28.9444 17.5221 28.4384 15.6138 28.358C13.1676 28.2539 10.8458 28.1802 8.40901 28.561C7.18591 28.7518 5.96685 29.0302 4.81964 29.5039C3.8188 29.9165 3.03977 30.7234 2.22482 31.427C1.34791 32.1831 -1.39508 35.3644 0.885882 36.1811C2.24817 32.0538 8.0058 30.9142 11.8834 30.9124C14.4495 30.9102 16.9226 31.101 19.4025 31.7669C21.3907 32.3003 23.3322 32.9855 25.2903 33.6191C29.0984 34.8502 34.1834 36.5107 38.0839 35.1255C39.7444 34.5359 41.3662 33.6631 42.6687 32.4665C43.3746 31.8172 45.4836 29.3961 44.899 28.2795Z" fill="#1D1D1F"/>
</g>
<defs>
<clipPath id="clip0">
<rect width="45" height="45" fill="white"/>
</clipPath>
</defs>
</svg>
