<?xml version="1.0"?>
<svg width="45" height="45" viewBox="0 0 45 45" fill="none" xmlns="http://www.w3.org/2000/svg">
	<g clip-path="url(#clip0)">
		<path d="M29.5312 7.55859C29.0461 7.55859 28.6523 7.95234 28.6523 8.4375C28.6523 8.92266 29.0461 9.31641 29.5312 9.31641C30.0164 9.31641 30.4102 8.92266 30.4102 8.4375C30.4102 7.95234 30.0164 7.55859 29.5312 7.55859Z" fill="#1D1D1F"/>
		<path d="M38.3365 22.2525C37.3387 18.6738 32.989 13.0554 33.5291 3.21214C33.5423 2.97114 33.4558 2.73524 33.2897 2.55981C33.1238 2.38447 32.8929 2.28516 32.6515 2.28516H12.3488C12.1073 2.28516 11.8764 2.38447 11.7105 2.55981C11.5446 2.73516 11.458 2.97105 11.4712 3.21214C12.0087 13.0101 7.67209 18.686 6.6574 22.2451C4.82268 28.662 7.81571 36.9501 12.0094 42.3736C12.1759 42.5888 12.4326 42.7148 12.7047 42.7148H32.2964C32.5684 42.7148 32.8252 42.5888 32.9916 42.3737C36.9832 37.2132 40.1092 28.5857 38.3365 22.2525ZM10.9373 16.7144C12.5853 12.5405 13.3663 8.2822 13.263 4.04306H31.7371C31.6339 8.28053 32.4146 12.5379 34.062 16.7124C34.1317 16.8892 34.2049 17.0676 34.2805 17.2479C30.6644 18.961 26.6097 19.8633 22.5001 19.8633C18.3905 19.8633 14.3357 18.961 10.7195 17.2479C10.7943 17.0693 10.8672 16.8919 10.9373 16.7144ZM21.6212 40.957H13.1404C8.61332 34.9052 7.26235 28.0378 8.12816 23.6413C12.8877 25.4686 17.3969 29.4057 21.6212 32.605V40.957ZM8.60294 21.9413C8.89913 21.1222 9.26792 20.3594 9.68004 19.5086C9.78419 19.2937 9.8901 19.0747 9.99706 18.8504C13.84 20.6652 18.1426 21.6211 22.5001 21.6211C26.8576 21.6211 31.1601 20.6652 35.0029 18.8505C35.1095 19.0741 35.215 19.2923 35.3187 19.5064C35.7313 20.3585 36.1004 21.1225 36.3934 21.9425C31.3697 23.8335 26.6356 27.9192 22.5001 31.0663C18.3469 27.906 13.628 23.8317 8.60294 21.9413ZM31.8592 40.957H23.379V32.605C27.6333 29.3825 32.1147 25.4718 36.858 23.6465C37.9031 29.201 35.178 36.4719 31.8592 40.957Z" fill="#1D1D1F"/>
		<path d="M31.6795 15.2875C31.2951 14.1137 30.9723 12.9247 30.7199 11.7532C30.6177 11.2787 30.15 10.9766 29.6757 11.079C29.2012 11.1813 28.8994 11.6488 29.0016 12.1233C29.2667 13.3544 29.6057 14.603 30.009 15.8346C30.1598 16.2952 30.6556 16.5477 31.1178 16.3963C31.5791 16.2453 31.8306 15.7489 31.6795 15.2875Z" fill="#1D1D1F"/>
		<path d="M44.1212 9.31638H38.6844L40.6997 7.30114C41.0429 6.95793 41.0429 6.4014 40.6997 6.0581C40.3565 5.7148 39.7999 5.71489 39.4566 6.0581L35.941 9.57373C35.5978 9.91694 35.5978 10.4735 35.941 10.8168L39.4566 14.3324C39.7998 14.6756 40.3564 14.6756 40.6997 14.3324C41.0429 13.9892 41.0429 13.4327 40.6997 13.0894L38.6844 11.0742H44.1212C44.6066 11.0742 45.0001 10.6807 45.0001 10.1953C45.0001 9.70987 44.6066 9.31638 44.1212 9.31638Z" fill="#1D1D1F"/>
		<path d="M9.05906 9.57382L5.54344 6.05819C5.20022 5.71498 4.6437 5.71498 4.3004 6.05819C3.9571 6.4014 3.95719 6.95793 4.3004 7.30123L6.31564 9.31638H0.878906C0.393486 9.31638 0 9.70987 0 10.1953C0 10.6807 0.393486 11.0742 0.878906 11.0742H6.31564L4.3004 13.0894C3.95719 13.4327 3.95719 13.9892 4.3004 14.3325C4.64361 14.6757 5.20014 14.6757 5.54344 14.3325L9.05906 10.8169C9.40228 10.4736 9.40228 9.91712 9.05906 9.57382Z" fill="#1D1D1F"/>
	</g>
	<defs>
		<clipPath id="clip0">
			<rect width="45" height="45" fill="white"/>
		</clipPath>
	</defs>
</svg>