<?xml version="1.0"?>
<svg width="40" height="40" viewBox="0 0 40 40" fill="none" xmlns="http://www.w3.org/2000/svg">
<path d="M0.740741 6.66663H2.96296V9.62959C2.96296 10.0392 3.29407 10.3703 3.7037 10.3703H12.5926C13.0022 10.3703 13.3333 10.0392 13.3333 9.62959V6.66663H39.2593C39.6689 6.66663 40 6.33552 40 5.92589C40 5.51626 39.6689 5.18515 39.2593 5.18515H13.3333V2.22219C13.3333 1.81256 13.0022 1.48145 12.5926 1.48145H3.7037C3.29407 1.48145 2.96296 1.81256 2.96296 2.22219V5.18515H0.740741C0.331111 5.18515 0 5.51626 0 5.92589C0 6.33552 0.331111 6.66663 0.740741 6.66663ZM4.44444 2.96293H11.8519V8.88885H4.44444V2.96293Z" fill="#1D1D1F"/>
<path d="M39.2593 19.2592H25.1852V16.2963C25.1852 15.8867 24.8541 15.5555 24.4444 15.5555H15.5556C15.1459 15.5555 14.8148 15.8867 14.8148 16.2963V19.2592H0.740741C0.331111 19.2592 0 19.5904 0 20C0 20.4096 0.331111 20.7407 0.740741 20.7407H14.8148V23.7037C14.8148 24.1133 15.1459 24.4444 15.5556 24.4444H24.4444C24.8541 24.4444 25.1852 24.1133 25.1852 23.7037V20.7407H39.2593C39.6689 20.7407 40 20.4096 40 20C40 19.5904 39.6689 19.2592 39.2593 19.2592ZM23.7037 22.9629H16.2963V17.037H23.7037V22.9629Z" fill="#1D1D1F"/>
<path d="M39.2593 33.3333H37.037V30.3704C37.037 29.9608 36.7059 29.6296 36.2963 29.6296H27.4074C26.9978 29.6296 26.6667 29.9608 26.6667 30.3704V33.3333H0.740741C0.331111 33.3333 0 33.6645 0 34.0741C0 34.4837 0.331111 34.8148 0.740741 34.8148H26.6667V37.7778C26.6667 38.1874 26.9978 38.5185 27.4074 38.5185H36.2963C36.7059 38.5185 37.037 38.1874 37.037 37.7778V34.8148H39.2593C39.6689 34.8148 40 34.4837 40 34.0741C40 33.6645 39.6689 33.3333 39.2593 33.3333ZM35.5556 37.0371H28.1481V31.1111H35.5556V37.0371Z" fill="#1D1D1F"/>
</svg>
