<?xml version="1.0"?>
<svg width="40" height="43" viewBox="0 0 40 43" fill="none" xmlns="http://www.w3.org/2000/svg">
<path d="M8.14507 8.52702C14.6041 2.78446 24.2702 2.69665 30.8185 7.93872L25.6281 8.13189C24.9581 8.15824 24.44 8.70264 24.4668 9.36119C24.4936 10.0022 25.0296 10.5027 25.6728 10.5027C25.6907 10.5027 25.6996 10.5027 25.7175 10.5027L33.6862 10.2129C34.3384 10.1866 34.8476 9.66851 34.8476 9.02752V8.93972C34.8476 8.92216 34.8476 8.91337 34.8476 8.89581V8.88703L34.5528 1.14247C34.526 0.483915 33.9632 -0.0253646 33.3021 0.000977456C32.6321 0.0273195 32.1139 0.571722 32.1407 1.23027L32.3283 6.08599C29.0854 3.47813 25.0921 1.96785 20.8218 1.75711C15.5332 1.49369 10.4499 3.27617 6.52809 6.77089C1.1322 11.5739 -1.1548 18.8795 0.560452 25.8338C0.694456 26.3782 1.1858 26.7382 1.73075 26.7382C1.82902 26.7382 1.91836 26.7294 2.01663 26.703C2.65985 26.545 3.06186 25.904 2.90105 25.2718C1.40021 19.1604 3.40134 12.7418 8.14507 8.52702Z" fill="#1D1D1F"/>
<path d="M39.4396 17.1672C39.2788 16.535 38.6267 16.1399 37.9835 16.2979C37.3403 16.456 36.9382 17.097 37.099 17.7292C38.6088 23.8405 36.5988 30.2592 31.855 34.4739C28.5228 37.433 24.3419 38.8906 20.1788 38.8906C16.2034 38.8906 12.2368 37.5647 9.03862 34.9481L14.2916 34.4827C14.9527 34.4212 15.444 33.8505 15.3815 33.1919C15.3189 32.5334 14.7383 32.0592 14.0682 32.1207L6.12627 32.8232C5.46518 32.8846 4.97384 33.4554 5.03637 34.1139L5.75106 41.9199C5.80466 42.5346 6.33174 43 6.94816 43C6.9839 43 7.01963 43 7.05536 42.9912C7.71645 42.9297 8.2078 42.359 8.14526 41.7004L7.71645 36.9501C10.9593 39.5316 14.9348 41.0331 19.1783 41.2438C19.5177 41.2614 19.8572 41.2702 20.1877 41.2702C25.1102 41.2702 29.7914 39.4965 33.472 36.2301C38.8679 31.427 41.1549 24.1303 39.4396 17.1672Z" fill="#1D1D1F"/>
</svg>