<svg width="33" height="56" viewBox="0 0 33 56" fill="none" xmlns="http://www.w3.org/2000/svg">
<path d="M19.0385 10.4186C21.8308 10.4186 24.1154 8.07442 24.1154 5.2093C24.1154 2.34419 21.8308 0 19.0385 0C16.2462 0 13.9615 2.34419 13.9615 5.2093C13.9615 8.07442 16.2462 10.4186 19.0385 10.4186ZM9.51923 19.2744L2.53846 56H7.86923L12.3115 35.1628L17.7692 40.3721V56H22.8462V36.3349L17.6423 30.9953L19.1654 23.1814C22.4654 27.3488 27.4154 29.9535 33 29.9535V24.7442C28.3038 24.7442 24.2423 22.1395 21.9577 18.3628L19.5462 14.1953C18.6577 12.6326 17.0077 11.7209 15.2308 11.7209C14.5962 11.7209 13.9615 11.8512 13.3269 12.1116L0 17.7116L1.81319 28H6.89011L5.07692 21.2279L9.51923 19.2744Z" fill="#4A4A4A"/>
</svg>
