<svg width="78" height="42" viewBox="0 0 78 42" fill="none" xmlns="http://www.w3.org/2000/svg">
<path d="M70.9091 13.4999L70.9014 13.5001C70.3396 13.5087 69.7799 13.4328 69.2414 13.2752L68.9595 13.1926L68.7501 13.3987L56.1283 25.8237L55.9099 26.0387L56.0024 26.3309C56.1598 26.828 56.2273 27.4039 56.2273 28C56.2273 31.5678 53.2663 34.5 49.6364 34.5C46.0064 34.5 43.0455 31.5678 43.0455 28C43.0455 27.4039 43.113 26.828 43.2703 26.3309L43.3627 26.0392L43.1449 25.8242L34.104 16.8992L33.8911 16.6891L33.6053 16.7772C33.0997 16.9332 32.5143 17 31.9091 17C31.3039 17 30.7185 16.9332 30.2128 16.7772L29.9267 16.6889L29.7138 16.8996L13.582 32.8596L13.3647 33.0745L13.4569 33.3659C13.615 33.8651 13.6818 34.4068 13.6818 35C13.6818 38.5678 10.7209 41.5 7.09091 41.5C3.46095 41.5 0.5 38.5678 0.5 35C0.5 31.4322 3.46095 28.5 7.09091 28.5C7.69327 28.5 8.24403 28.5662 8.7517 28.7228L9.03715 28.8108L9.24996 28.6012L25.4172 12.6762L25.6355 12.4612L25.543 12.1691C25.3857 11.672 25.3182 11.0961 25.3182 10.5C25.3182 6.93221 28.2791 4 31.9091 4C35.539 4 38.5 6.93221 38.5 10.5C38.5 11.0961 38.4325 11.672 38.2751 12.1691L38.1828 12.4608L38.4006 12.6758L47.4415 21.6008L47.6543 21.8109L47.9401 21.7228C48.4458 21.5668 49.0312 21.5 49.6364 21.5C50.2416 21.5 50.827 21.5668 51.3326 21.7228L51.6189 21.8111L51.8318 21.6003L64.4181 9.14033L64.6317 8.92891L64.5452 8.6411C64.3859 8.11115 64.3094 7.56044 64.3181 7.00789L64.3182 7.00789V7C64.3182 3.43221 67.2791 0.5 70.9091 0.5C74.539 0.5 77.5 3.43221 77.5 7C77.5 10.5678 74.539 13.5 70.9091 13.4999Z" fill="#4A4A4A" stroke="white"/>
</svg>
