<svg width="59" height="49" viewBox="0 0 59 49" fill="none" xmlns="http://www.w3.org/2000/svg">
<path d="M44.25 39.1589C40.2675 39.1589 37.76 40.3927 35.5475 41.509C33.63 42.4784 32.0665 43.2716 29.5 43.2716C26.845 43.2716 25.37 42.5372 23.4525 41.509C21.24 40.3927 18.821 39.1589 14.75 39.1589C10.679 39.1589 8.26 40.3927 6.0475 41.509C4.13 42.4784 2.596 43.2716 0 43.2716V49C3.9825 49 6.49 47.7662 8.7025 46.6499C10.62 45.6805 12.154 44.8873 14.75 44.8873C17.346 44.8873 18.88 45.6217 20.7975 46.6499C23.01 47.7662 25.429 49 29.5 49C33.571 49 35.99 47.7662 38.2025 46.6499C40.12 45.6805 41.6835 44.8873 44.25 44.8873C46.905 44.8873 48.38 45.6217 50.2975 46.6499C52.51 47.7662 54.9585 49 59 49V43.2716C56.345 43.2716 54.87 42.5372 52.9525 41.509C50.74 40.3927 48.2325 39.1589 44.25 39.1589ZM44.25 26.0863C40.2675 26.0863 37.76 27.3495 35.5475 28.4365C33.63 29.3765 32.0665 30.199 29.5 30.199C26.845 30.199 25.37 29.4646 23.4525 28.4365C21.24 27.3201 18.821 26.0863 14.75 26.0863C10.679 26.0863 8.26 27.3495 6.0475 28.4365C4.13 29.3765 2.596 30.199 0 30.199V35.9275C3.9825 35.9275 6.49 34.6643 8.7025 33.5773C10.62 32.5492 12.095 31.8147 14.75 31.8147C17.405 31.8147 18.88 32.5492 20.7975 33.5773C23.01 34.6936 25.429 35.9275 29.5 35.9275C33.571 35.9275 35.99 34.6643 38.2025 33.5773C40.12 32.5492 41.595 31.8147 44.25 31.8147C46.905 31.8147 48.38 32.5492 50.2975 33.5773C52.51 34.6936 54.9585 35.9275 59 35.9275V30.199C56.345 30.199 54.87 29.4646 52.9525 28.4365C50.74 27.3201 48.2325 26.0863 44.25 26.0863ZM52.9525 2.35012C50.74 1.23381 48.2915 0 44.25 0C40.2085 0 37.76 1.23381 35.5475 2.35012C33.63 3.29017 32.0665 4.11271 29.5 4.11271C26.845 4.11271 25.37 3.3783 23.4525 2.35012C21.24 1.26319 18.821 0 14.75 0C10.679 0 8.26 1.23381 6.0475 2.35012C4.13 3.31954 2.596 4.11271 0 4.11271V9.78237C3.9825 9.78237 6.49 8.51918 8.7025 7.43225C10.62 6.46283 12.154 5.66966 14.75 5.66966C17.346 5.66966 18.88 6.40408 20.7975 7.43225C23.01 8.54856 25.429 9.78237 29.5 9.78237C33.571 9.78237 35.99 8.51918 38.2025 7.43225C40.12 6.49221 41.6835 5.66966 44.25 5.66966C46.905 5.66966 48.38 6.40408 50.2975 7.43225C52.51 8.54856 54.9585 9.78237 59 9.78237V4.05396C56.345 4.05396 54.87 3.31954 52.9525 2.35012ZM44.25 13.0138C40.2675 13.0138 37.76 14.277 35.5475 15.3639C33.63 16.3921 32.155 17.1265 29.5 17.1265C26.845 17.1265 25.37 16.3921 23.4525 15.3639C21.24 14.2476 18.821 13.0138 14.75 13.0138C10.679 13.0138 8.26 14.277 6.0475 15.3639C4.13 16.3921 2.655 17.1265 0 17.1265V22.8549C3.9825 22.8549 6.49 21.5917 8.7025 20.5048C10.62 19.5647 12.1835 18.7422 14.75 18.7422C17.3165 18.7422 18.88 19.4766 20.7975 20.5048C23.01 21.6211 25.429 22.8549 29.5 22.8549C33.571 22.8549 35.99 21.5917 38.2025 20.5048C40.12 19.5647 41.6835 18.7422 44.25 18.7422C46.905 18.7422 48.38 19.4766 50.2975 20.5048C52.51 21.6211 54.9585 22.8549 59 22.8549V17.1265C56.345 17.1265 54.87 16.3921 52.9525 15.3639C50.74 14.2476 48.2325 13.0138 44.25 13.0138Z" fill="#4A4A4A"/>
</svg>
