<svg width="50" height="51" viewBox="0 0 50 51" fill="none" xmlns="http://www.w3.org/2000/svg">
<path d="M41.5 44.7211H47.5V49.8467H32.5V34.4698H37.5V41.4663C42.075 37.699 45 31.9583 45 25.5C45 15.0693 37.35 6.43266 27.5 5.17688V0C40.125 1.28141 50 12.199 50 25.5C50 33.1628 46.7 40.0312 41.5 44.7211ZM5 25.5C5 19.0417 7.925 13.2754 12.5 9.53367V16.5301H17.5V1.15327H2.5V6.27889H8.5C5.82901 8.67689 3.68883 11.6324 2.22287 14.9474C0.756907 18.2624 -0.000977649 21.8603 9.46478e-07 25.5C9.46478e-07 38.801 9.875 49.7186 22.5 51V45.8231C12.65 44.5673 5 35.9307 5 25.5Z" fill="#4A4A4A"/>
</svg>
